<svg width="1400" height="780" viewBox="0 0 1400 780" fill="none" xmlns="http://www.w3.org/2000/svg">
  <defs>
    <linearGradient id="bg" x1="0" y1="0" x2="1400" y2="780" gradientUnits="userSpaceOnUse">
      <stop stop-color="#E6F4FF"/>
      <stop offset="0.55" stop-color="#F2FAFF"/>
      <stop offset="1" stop-color="#FFF3DE"/>
    </linearGradient>
    <linearGradient id="board" x1="0" y1="0" x2="0" y2="1">
      <stop stop-color="#0F172A"/>
      <stop offset="1" stop-color="#17365D"/>
    </linearGradient>
    <linearGradient id="barA" x1="0" y1="0" x2="0" y2="1">
      <stop stop-color="#38BDF8"/>
      <stop offset="1" stop-color="#0EA5E9"/>
    </linearGradient>
    <linearGradient id="barB" x1="0" y1="0" x2="0" y2="1">
      <stop stop-color="#22C55E"/>
      <stop offset="1" stop-color="#16A34A"/>
    </linearGradient>
    <linearGradient id="barC" x1="0" y1="0" x2="0" y2="1">
      <stop stop-color="#F59E0B"/>
      <stop offset="1" stop-color="#EA580C"/>
    </linearGradient>
  </defs>

  <rect width="1400" height="780" rx="40" fill="url(#bg)"/>
  <circle cx="180" cy="120" r="140" fill="#CFF0FF" opacity="0.7"/>
  <circle cx="1220" cy="620" r="170" fill="#FFE5BA" opacity="0.8"/>

  <rect x="66" y="70" width="1268" height="102" rx="24" fill="#FFFFFF" fill-opacity="0.9"/>
  <rect x="96" y="105" width="210" height="16" rx="8" fill="#DBEAFE"/>
  <rect x="96" y="131" width="150" height="12" rx="6" fill="#E2E8F0"/>
  <rect x="1105" y="100" width="200" height="42" rx="14" fill="#0F172A"/>
  <rect x="1121" y="114" width="170" height="14" rx="7" fill="#67E8F9"/>

  <rect x="66" y="206" width="848" height="500" rx="34" fill="url(#board)"/>
  <rect x="106" y="248" width="770" height="72" rx="20" fill="#FFFFFF" fill-opacity="0.1"/>
  <rect x="132" y="270" width="265" height="16" rx="8" fill="#7DD3FC"/>
  <rect x="132" y="295" width="194" height="10" rx="5" fill="#E2E8F0" fill-opacity="0.8"/>

  <rect x="106" y="350" width="364" height="320" rx="26" fill="#FFFFFF" fill-opacity="0.08"/>
  <rect x="132" y="382" width="120" height="10" rx="5" fill="#CFFAFE"/>
  <rect x="132" y="408" width="300" height="8" rx="4" fill="#CBD5E1" fill-opacity="0.8"/>
  <rect x="132" y="434" width="240" height="8" rx="4" fill="#CBD5E1" fill-opacity="0.65"/>
  <rect x="132" y="518" width="42" height="110" rx="12" fill="url(#barA)"/>
  <rect x="190" y="474" width="42" height="154" rx="12" fill="url(#barB)"/>
  <rect x="248" y="446" width="42" height="182" rx="12" fill="url(#barC)"/>
  <rect x="306" y="500" width="42" height="128" rx="12" fill="#3B82F6"/>
  <rect x="364" y="462" width="42" height="166" rx="12" fill="#14B8A6"/>

  <rect x="498" y="350" width="378" height="320" rx="26" fill="#FFFFFF" fill-opacity="0.08"/>
  <rect x="524" y="382" width="190" height="10" rx="5" fill="#E0F2FE"/>
  <rect x="524" y="416" width="318" height="84" rx="18" fill="#FFFFFF" fill-opacity="0.1"/>
  <rect x="544" y="440" width="278" height="14" rx="7" fill="#A5F3FC"/>
  <rect x="544" y="465" width="220" height="10" rx="5" fill="#CBD5E1" fill-opacity="0.85"/>
  <rect x="524" y="524" width="318" height="118" rx="18" fill="#FFFFFF" fill-opacity="0.1"/>
  <circle cx="565" cy="563" r="18" fill="#34D399"/>
  <rect x="596" y="552" width="216" height="12" rx="6" fill="#E0F2FE"/>
  <rect x="596" y="573" width="182" height="9" rx="4.5" fill="#CBD5E1" fill-opacity="0.8"/>
  <circle cx="565" cy="609" r="18" fill="#F59E0B"/>
  <rect x="596" y="598" width="196" height="12" rx="6" fill="#FEF3C7"/>
  <rect x="596" y="619" width="160" height="9" rx="4.5" fill="#CBD5E1" fill-opacity="0.8"/>

  <rect x="948" y="206" width="386" height="500" rx="34" fill="#FFFFFF" fill-opacity="0.95"/>
  <rect x="980" y="250" width="220" height="14" rx="7" fill="#0EA5E9"/>
  <rect x="980" y="273" width="162" height="10" rx="5" fill="#94A3B8"/>

  <circle cx="1048" cy="392" r="56" fill="#E0F2FE"/>
  <rect x="1008" y="455" width="82" height="14" rx="7" fill="#E2E8F0"/>
  <rect x="983" y="478" width="132" height="10" rx="5" fill="#CBD5E1"/>

  <circle cx="1228" cy="392" r="56" fill="#FFF1D6"/>
  <rect x="1188" y="455" width="82" height="14" rx="7" fill="#E2E8F0"/>
  <rect x="1163" y="478" width="132" height="10" rx="5" fill="#CBD5E1"/>

  <rect x="980" y="536" width="322" height="140" rx="22" fill="#F8FAFC"/>
  <rect x="1004" y="564" width="274" height="12" rx="6" fill="#0F172A"/>
  <rect x="1004" y="588" width="190" height="10" rx="5" fill="#94A3B8"/>
  <rect x="1004" y="620" width="128" height="34" rx="12" fill="#0F172A"/>
  <rect x="1028" y="632" width="80" height="10" rx="5" fill="#67E8F9"/>

  <rect x="664" y="136" width="250" height="54" rx="18" fill="#0F172A"/>
  <rect x="690" y="156" width="198" height="14" rx="7" fill="#A5F3FC"/>
</svg>
